<?xml version="1.0" encoding="UTF-8" standalone="no"?>
<svg
   xmlns:dc="http://purl.org/dc/elements/1.1/"
   xmlns:cc="http://creativecommons.org/ns#"
   xmlns:rdf="http://www.w3.org/1999/02/22-rdf-syntax-ns#"
   xmlns:svg="http://www.w3.org/2000/svg"
   xmlns="http://www.w3.org/2000/svg"
   xmlns:sodipodi="http://sodipodi.sourceforge.net/DTD/sodipodi-0.dtd"
   xmlns:inkscape="http://www.inkscape.org/namespaces/inkscape"
   width="680.21545"
   version="1.1"
   height="104.69733"
   viewBox="0 0 544.17236 83.757861"
   id="svg2"
   inkscape:version="0.48.3.1 r9886"
   sodipodi:docname="new-page001.svg">
  <metadata
     id="metadata173">
    <rdf:RDF>
      <cc:Work
         rdf:about="">
        <dc:format>image/svg+xml</dc:format>
        <dc:type
           rdf:resource="http://purl.org/dc/dcmitype/StillImage" />
      </cc:Work>
    </rdf:RDF>
  </metadata>
  <sodipodi:namedview
     pagecolor="#ffffff"
     bordercolor="#666666"
     borderopacity="1"
     objecttolerance="10"
     gridtolerance="10"
     guidetolerance="10"
     inkscape:pageopacity="0"
     inkscape:pageshadow="2"
     inkscape:window-width="1366"
     inkscape:window-height="744"
     id="namedview171"
     showgrid="false"
     fit-margin-top="10"
     fit-margin-left="10"
     fit-margin-right="10"
     fit-margin-bottom="10"
     inkscape:zoom="1.7653137"
     inkscape:cx="285.78082"
     inkscape:cy="34.936133"
     inkscape:window-x="0"
     inkscape:window-y="24"
     inkscape:window-maximized="1"
     inkscape:current-layer="svg2" />
  <defs
     id="defs4">
    <clipPath
       id="Clip0">
      <path
         d="M 0,0 541,0 541,267 0,267 0,0 z"
         transform="translate(0,1)"
         id="path7"
         inkscape:connector-curvature="0" />
    </clipPath>
  </defs>
  <g
     id="Background"
     transform="translate(2.94238,3.38086)">
    <g
       id="Group1"
       clip-path="url(#Clip0)">
      <path
         style="fill:#004080;fill-rule:evenodd;stroke:none"
         d="M 5.191,2.10938 C 5.191,1.50391 5.059,1.10547 4.731,0.74609 4.289,0.25781 3.559,0 2.609,0 1.031,0 0.117,0.73828 0.117,2.01953 c 0,1.01563 0.516,1.51172 1.852,1.76563 l 0.922,0.17968 c 0.902,0.17188 1.238,0.42579 1.238,0.95704 0,0.55078 -0.508,0.88278 -1.328,0.88278 -0.922,0 -1.438,-0.3867 -1.481,-1.08982 l -1.32,0 c 0.082,1.40622 1.047,2.17192 2.727,2.17192 1.699,0 2.699,-0.793 2.699,-2.12895 0,-1.03515 -0.524,-1.57812 -1.742,-1.8125 L 2.656,2.75 C 1.688,2.55859 1.41,2.37109 1.41,1.89063 c 0,-0.4961 0.442,-0.8086 1.137,-0.8086 0.859,0 1.336,0.35938 1.383,1.02735 l 1.261,0 z"
         transform="translate(283.288,4.61914)"
         id="path11"
         inkscape:connector-curvature="0" />
      <path
         style="fill:#004080;fill-rule:evenodd;stroke:none"
         d="m 4,6.5742 1.3555,0 L 5.3555,0 4,0 4,4.4727 1.3906,0 0,0 l 0,6.5742 1.3555,0 0,-4.5429 L 4,6.5742 z"
         transform="translate(45.2207,34.7246)"
         id="path13"
         inkscape:connector-curvature="0" />
      <path
         style="fill:#004080;fill-rule:evenodd;stroke:none"
         d="m 1.3516,4.2305 1.6914,0 C 4.2539,4.2305 5.0273,3.375 5.0273,2.0391 5.0273,0.7227 4.2812,0 2.9062,0 L 0,0 l 0,6.5742 1.3516,0 0,-2.3437 z m 0,-1.1289 0,-1.9727 1.2656,0 c 0.7226,0 1.0586,0.3164 1.0586,0.9922 0,0.668 -0.336,0.9805 -1.0586,0.9805 l -1.2656,0 z"
         transform="translate(51.792,34.7246)"
         id="path15"
         inkscape:connector-curvature="0" />
      <path
         style="fill:#008040;fill-rule:evenodd;stroke:none"
         d="m 2.25,4.7071 0,-4.336 1.5,0 0,0.6602 c 0,0.1445 0.08203,0.2422 0.1875,0.2422 0.1289,0 0.18359,-0.0742 0.18359,-0.2422 L 4.12109,0 0,0 0,1.0313 c 0,0.1602 0.0664,0.2422 0.18359,0.2422 0.125,0 0.1875,-0.082 0.1875,-0.2422 l 0,-0.6602 1.50781,0 0,4.336 -0.94531,0 c -0.16406,0 -0.24609,0.0664 -0.24609,0.1836 0,0.125 0.08203,0.1875 0.24609,0.1875 l 2.26563,0 c 0.16015,0 0.24218,-0.0625 0.24218,-0.1875 0,-0.1172 -0.08203,-0.1836 -0.24218,-0.1836 l -0.94922,0 z"
         transform="translate(5.05762,65.623)"
         id="path17"
         inkscape:connector-curvature="0" />
      <path
         style="fill:#008040;fill-rule:evenodd;stroke:none"
         d="M 1.1016,0 0.2461,0 C 0.082,0 0,0.0625 0,0.1796 0,0.3046 0.082,0.3671 0.2461,0.3671 l 0.4883,0 0,4.7071 -0.418,0 c -0.1601,0 -0.2422,0.0664 -0.2422,0.1836 0,0.125 0.0899,0.1875 0.2422,0.1875 l 1.1914,0 c 0.1641,0 0.2539,-0.0625 0.2539,-0.1875 0,-0.1172 -0.082,-0.1836 -0.2539,-0.1836 l -0.4062,0 0,-2.2969 0.1015,-0.1172 C 1.6914,2.082 1.9414,1.9296 2.4492,1.9296 c 0.3594,0 0.5586,0.0625 0.7657,0.2344 0.2265,0.1797 0.3437,0.4141 0.3437,0.6836 l 0,2.2266 -0.4062,0 c -0.1602,0 -0.2422,0.0664 -0.2422,0.1836 0,0.125 0.082,0.1875 0.2422,0.1875 l 1.1835,0 c 0.1719,0 0.254,-0.0625 0.254,-0.1875 0,-0.1172 -0.0821,-0.1836 -0.254,-0.1836 l -0.4062,0 0,-2.2539 c 0,-0.7305 -0.5977,-1.2617 -1.4375,-1.2617 -0.5508,0 -0.9297,0.207 -1.3906,0.7578 L 1.1016,0 z"
         transform="translate(10.1953,65.2559)"
         id="path19"
         inkscape:connector-curvature="0" />
      <path
         style="fill:#008040;fill-rule:evenodd;stroke:none"
         d="M 4.125,2.0937 C 4.125,1.6757 4.0977,1.5078 3.9727,1.207 3.6485,0.4609 2.9258,0 2.0586,0 0.9024,0 0,0.8398 0,1.9296 0,3.1015 0.9649,4.0312 2.1836,4.0312 3.0078,4.0312 4.0899,3.6054 4.0899,3.2929 4.0899,3.1914 4.0078,3.1093 3.918,3.1093 3.8711,3.1093 3.836,3.1289 3.7735,3.1757 3.4141,3.4648 2.7539,3.6601 2.1914,3.6601 1.2188,3.6601 0.4961,3.039 0.3672,2.0937 l 3.7578,0 z M 0.3672,1.7226 C 0.5313,0.8945 1.1836,0.371 2.0586,0.371 c 0.875,0 1.543,0.5313 1.6875,1.3516 l -3.3789,0 z"
         transform="translate(15.7783,66.8145)"
         id="path21"
         inkscape:connector-curvature="0" />
      <path
         style="fill:#008040;fill-rule:evenodd;stroke:none"
         d="m 0.5507,4.7071 -0.3047,0 C 0.082,4.7071 0,4.7735 0,4.8907 0,5.0157 0.082,5.0782 0.246,5.0782 l 1.9844,0 c 1.168,0 2.0781,-1.0117 2.0781,-2.2891 l 0,-0.5078 C 4.3085,1.0118 3.3984,0 2.2304,0 L 0.246,0 C 0.082,0 0,0.0665 0,0.1836 0,0.3086 0.082,0.3711 0.246,0.3711 l 0.3047,0 0,4.336 z m 0.3711,0 0,-4.336 1.293,0 c 0.4883,0 0.8203,0.1368 1.1367,0.4493 0.3633,0.3711 0.586,0.914 0.586,1.3906 l 0,0.6562 c 0,0.9571 -0.793,1.8399 -1.6602,1.8399 l -1.3555,0 z"
         transform="translate(26.3936,65.623)"
         id="path23"
         inkscape:connector-curvature="0" />
      <path
         style="fill:#008040;fill-rule:evenodd;stroke:none"
         d="m 2.25,4.7071 0,-4.336 1.5,0 0,0.6602 c 0,0.1445 0.082,0.2422 0.1875,0.2422 0.1289,0 0.1836,-0.0742 0.1836,-0.2422 L 4.1211,0 0,0 0,1.0313 c 0,0.1602 0.0664,0.2422 0.1836,0.2422 0.125,0 0.1875,-0.082 0.1875,-0.2422 l 0,-0.6602 1.5078,0 0,4.336 -0.9453,0 c -0.1641,0 -0.2461,0.0664 -0.2461,0.1836 0,0.125 0.082,0.1875 0.2461,0.1875 l 2.2656,0 c 0.1602,0 0.2422,-0.0625 0.2422,-0.1875 0,-0.1172 -0.082,-0.1836 -0.2422,-0.1836 l -0.9492,0 z"
         transform="translate(32.0547,65.623)"
         id="path25"
         inkscape:connector-curvature="0" />
      <path
         style="fill:#008040;fill-rule:evenodd;stroke:none"
         d="M 3.5937,0.8671 C 3.1679,0.2695 2.6719,0 1.9765,0 0.8554,0 0,0.8203 0,1.8945 c 0,1.0742 0.8554,1.9023 1.9687,1.9023 0.7032,0 1.2071,-0.2695 1.625,-0.8672 l 0,2.2657 -0.8867,0 c -0.1601,0 -0.2422,0.0625 -0.2422,0.1797 0,0.125 0.0821,0.1875 0.2422,0.1875 l 1.7422,0 c 0.1641,0 0.2461,-0.0625 0.2461,-0.1875 0,-0.1172 -0.082,-0.1797 -0.2461,-0.1797 l -0.4844,0 0,-4.6993 0.4844,0 c 0.1641,0 0.2461,-0.0625 0.2461,-0.1875 0,-0.1171 -0.082,-0.1835 -0.2461,-0.1835 l -0.8555,0 0,0.7421 z M 1.9765,0.371 c 0.9102,0 1.6172,0.668 1.6172,1.5391 0,0.8399 -0.7226,1.5156 -1.6172,1.5156 -0.9023,0 -1.6093,-0.6757 -1.6093,-1.5312 0,-0.8555 0.707,-1.5235 1.6093,-1.5235 z"
         transform="translate(59.5801,66.8145)"
         id="path27"
         inkscape:connector-curvature="0" />
      <path
         style="fill:#008040;fill-rule:evenodd;stroke:none"
         d="m 3.5781,3.7617 0.6758,0 C 4.418,3.7617 4.5,3.6992 4.5,3.5742 4.5,3.457 4.418,3.3906 4.2539,3.3906 l -0.3047,0 0,-3.3906 -1.039,0 c -0.1719,0 -0.254,0.0664 -0.254,0.1835 0,0.125 0.0821,0.1875 0.254,0.1875 l 0.6679,0 0,2.3555 C 3.082,3.2656 2.5312,3.5351 1.9258,3.5351 1.4648,3.5351 1.1016,3.1757 1.1016,2.7265 L 1.1016,0 0.2461,0 C 0.082,0 0,0.0664 0,0.1835 0,0.3085 0.082,0.371 0.2461,0.371 l 0.4883,0 0,2.3555 c 0,0.711 0.4765,1.1797 1.1992,1.1797 0.5976,0 1.1484,-0.2539 1.6445,-0.7383 l 0,0.5938 z"
         transform="translate(64.7959,66.9395)"
         id="path29"
         inkscape:connector-curvature="0" />
      <path
         style="fill:#008040;fill-rule:evenodd;stroke:none"
         d="m 2.0586,1.8633 -1.4375,0 c -0.1601,0 -0.2422,0.0664 -0.2422,0.1835 0,0.125 0.0821,0.1875 0.2422,0.1875 l 1.0664,0 0,3.0196 -1.4453,0 C 0.0821,5.2539 0,5.3203 0,5.4375 0,5.5625 0.0821,5.625 0.2422,5.625 l 3.2617,0 c 0.1602,0 0.25,-0.0625 0.25,-0.1875 0,-0.1172 -0.0781,-0.1836 -0.25,-0.1836 l -1.4453,0 0,-3.3906 z M 2.0391,0 1.5078,0 l 0,0.9375 0.5313,0 0,-0.9375 z"
         transform="translate(70.6406,65.0762)"
         id="path31"
         inkscape:connector-curvature="0" />
      <path
         style="fill:#008040;fill-rule:evenodd;stroke:none"
         d="M 3.4883,0.496 C 3.1172,0.1718 2.6289,0 2.0781,0 0.8672,0 0,0.8554 0,2.0468 0,3.2031 0.8516,4.0312 2.0313,4.0312 2.6289,4.0312 3.2266,3.8515 3.6836,3.5351 3.9375,3.3632 4.0742,3.2031 4.0742,3.0937 4.0742,3.0039 3.9922,2.9218 3.9024,2.9218 3.8399,2.9218 3.8125,2.9414 3.7383,3.0117 3.2696,3.4453 2.711,3.6601 2.0508,3.6601 1.0664,3.6601 0.3711,2.9843 0.3711,2.039 c 0,-0.9922 0.6875,-1.668 1.6797,-1.668 0.7578,0 1.3984,0.379 1.4375,0.8555 0.0156,0.1524 0.0703,0.2149 0.1875,0.2149 0.1172,0 0.1797,-0.0782 0.1797,-0.2422 l 0,-0.8203 C 3.8555,0.207 3.793,0.125 3.6758,0.125 c -0.125,0 -0.1875,0.082 -0.1875,0.2539 l 0,0.1171 z"
         transform="translate(75.9658,66.8145)"
         id="path33"
         inkscape:connector-curvature="0" />
      <path
         style="fill:#008040;fill-rule:evenodd;stroke:none"
         d="m 1.1016,3.8242 0.4141,-0.3555 1.625,1.6055 -0.2539,0 c -0.1602,0 -0.2422,0.0664 -0.2422,0.1836 0,0.125 0.082,0.1875 0.2422,0.1875 l 1.1835,0 c 0.1641,0 0.2461,-0.0625 0.2461,-0.1875 0,-0.1172 -0.082,-0.1836 -0.2461,-0.1836 l -0.4062,0 -1.8672,-1.8399 1.418,-1.1797 0.4219,0 c 0.164,0 0.246,-0.0625 0.246,-0.1875 0,-0.1171 -0.082,-0.1835 -0.246,-0.1835 l -1.1719,0 c -0.1641,0 -0.2461,0.0664 -0.2461,0.1835 0,0.125 0.082,0.1875 0.2461,0.1875 l 0.1992,0 L 1.1016,3.3789 1.1016,0 0.2422,0 C 0.0782,0 0,0.0625 0,0.1796 0,0.3046 0.0782,0.3671 0.2422,0.3671 l 0.4883,0 0,4.7071 -0.4883,0 C 0.0782,5.0742 0,5.1406 0,5.2578 0,5.3828 0.0782,5.4453 0.2422,5.4453 l 0.8594,0 0,-1.6211 z"
         transform="translate(81.1777,65.2559)"
         id="path35"
         inkscape:connector-curvature="0" />
      <path
         style="fill:#008040;fill-rule:evenodd;stroke:none"
         d="m 4.3242,5.0782 0,-4.7071 0.3086,0 C 4.7929,0.3711 4.875,0.3086 4.875,0.1836 4.875,0.0665 4.7929,0 4.6328,0 L 3.2851,0 c -0.1718,0 -0.25,0.0665 -0.25,0.1836 0,0.125 0.0782,0.1875 0.25,0.1875 l 0.668,0 0,4.1758 L 1.1992,0 0.2422,0 C 0.082,0 0,0.0665 0,0.1836 0,0.3086 0.082,0.3711 0.2422,0.3711 l 0.4882,0 0,4.336 -0.3047,0 c -0.164,0 -0.246,0.0664 -0.246,0.1836 0,0.125 0.082,0.1875 0.246,0.1875 l 1.3516,0 c 0.1563,0 0.2461,-0.0625 0.2461,-0.1875 0,-0.1172 -0.082,-0.1836 -0.2461,-0.1836 l -0.6758,0 0,-4.1719 2.7539,4.543 0.4688,0 z"
         transform="translate(91.6055,65.623)"
         id="path37"
         inkscape:connector-curvature="0" />
      <path
         style="fill:#008040;fill-rule:evenodd;stroke:none"
         d="m 4.3241,5.0782 0,-4.7071 0.309,0 c 0.16,0 0.242,-0.0625 0.242,-0.1875 C 4.8751,0.0665 4.7931,0 4.6331,0 l -1.348,0 c -0.172,0 -0.25,0.0665 -0.25,0.1836 0,0.125 0.078,0.1875 0.25,0.1875 l 0.668,0 0,4.1758 L 1.1992,0 0.2422,0 C 0.082,0 0,0.0665 0,0.1836 0,0.3086 0.082,0.3711 0.2422,0.3711 l 0.4883,0 0,4.336 -0.3047,0 c -0.1641,0 -0.2461,0.0664 -0.2461,0.1836 0,0.125 0.082,0.1875 0.2461,0.1875 l 1.3515,0 c 0.1563,0 0.2461,-0.0625 0.2461,-0.1875 0,-0.1172 -0.082,-0.1836 -0.2461,-0.1836 l -0.6758,0 0,-4.1719 2.7536,4.543 0.469,0 z"
         transform="translate(97.0049,65.623)"
         id="path39"
         inkscape:connector-curvature="0" />
      <path
         style="fill:none;stroke:#004040;stroke-width:1;stroke-linecap:butt;stroke-linejoin:round;stroke-dasharray:none"
         d="M 30,0 0,15"
         transform="translate(20.8574,47)"
         id="path41"
         inkscape:connector-curvature="0" />
      <path
         style="fill:none;stroke:#004040;stroke-width:1;stroke-linecap:butt;stroke-linejoin:round;stroke-dasharray:none"
         d="M 0,0 30.5,15"
         transform="translate(50.8574,47)"
         id="path43"
         inkscape:connector-curvature="0" />
      <path
         style="fill:#004080;fill-rule:evenodd;stroke:none"
         d="m 4,6.5742 1.355,0 L 5.355,0 4,0 4,4.4727 1.39,0 0,0 l 0,6.5742 1.355,0 0,-4.5429 L 4,6.5742 z"
         transform="translate(145.221,34.7246)"
         id="path45"
         inkscape:connector-curvature="0" />
      <path
         style="fill:#004080;fill-rule:evenodd;stroke:none"
         d="m 1.352,4.2305 1.691,0 C 4.254,4.2305 5.027,3.375 5.027,2.0391 5.027,0.7227 4.281,0 2.906,0 L 0,0 l 0,6.5742 1.352,0 0,-2.3437 z m 0,-1.1289 0,-1.9727 1.265,0 c 0.723,0 1.059,0.3164 1.059,0.9922 0,0.668 -0.336,0.9805 -1.059,0.9805 l -1.265,0 z"
         transform="translate(151.792,34.7246)"
         id="path47"
         inkscape:connector-curvature="0" />
      <path
         style="fill:#008040;fill-rule:evenodd;stroke:none"
         d="M 1.102,0 0.242,0 C 0.082,0 0,0.0625 0,0.1796 0,0.3046 0.082,0.3671 0.242,0.3671 l 0.488,0 0,4.7071 -0.488,0 C 0.082,5.0742 0,5.1406 0,5.2578 0,5.3828 0.082,5.4453 0.242,5.4453 l 0.86,0 0,-0.793 c 0.425,0.6289 0.964,0.9375 1.625,0.9375 1.082,0 1.96,-0.9102 1.96,-2.0391 0,-1.1171 -0.859,-1.9921 -1.96,-1.9921 -0.668,0 -1.172,0.289 -1.625,0.9296 L 1.102,0 z m 1.605,1.9296 c 0.906,0 1.609,0.7305 1.609,1.668 0,0.8828 -0.73,1.6211 -1.609,1.6211 -0.891,0 -1.605,-0.7383 -1.605,-1.6484 0,-0.9102 0.714,-1.6407 1.605,-1.6407 z"
         transform="translate(129.459,65.2559)"
         id="path49"
         inkscape:connector-curvature="0" />
      <path
         style="fill:#008040;fill-rule:evenodd;stroke:none"
         d="m 1.48,0.0899 -1.046,0 c -0.153,0 -0.243,0.0742 -0.243,0.1835 0,0.1172 0.09,0.1875 0.243,0.1875 l 0.679,0 0,3.0196 -0.867,0 C 0.09,3.4805 0,3.5547 0,3.6641 0,3.7813 0.09,3.8516 0.246,3.8516 l 2.852,0 c 0.152,0 0.246,-0.0703 0.246,-0.1797 0,-0.1172 -0.094,-0.1914 -0.246,-0.1914 l -1.618,0 0,-1.9922 C 2.477,0.5781 2.793,0.3711 3.199,0.3711 c 0.196,0 0.379,0.0977 0.594,0.3047 C 3.855,0.7422 3.875,0.75 3.937,0.75 4.047,0.75 4.129,0.668 4.129,0.5586 4.129,0.4805 4.074,0.4063 3.922,0.2813 3.684,0.082 3.488,0 3.227,0 2.766,0 2.32,0.2539 1.48,1.0117 l 0,-0.9218 z"
         transform="translate(135.417,66.8496)"
         id="path51"
         inkscape:connector-curvature="0" />
      <path
         style="fill:#008040;fill-rule:evenodd;stroke:none"
         d="M 2.063,0 C 0.914,0 0,0.9023 0,2.0117 0,3.1367 0.914,4.0312 2.063,4.0312 3.199,4.0312 4.121,3.1367 4.121,2.039 4.121,0.8945 3.215,0 2.063,0 z m 0,0.371 c 0.945,0 1.687,0.7188 1.687,1.668 0,0.8906 -0.758,1.6211 -1.687,1.6211 -0.942,0 -1.692,-0.7305 -1.692,-1.6484 0,-0.9102 0.75,-1.6407 1.692,-1.6407 z"
         transform="translate(140.707,66.8145)"
         id="path53"
         inkscape:connector-curvature="0" />
      <path
         style="fill:#008040;fill-rule:evenodd;stroke:none"
         d="M 3.714,3.7617 4.46,0.371 l 0.172,0 C 4.796,0.371 4.878,0.3085 4.878,0.1835 4.878,0.0664 4.796,0 4.632,0 l -1,0 C 3.468,0 3.386,0.0664 3.386,0.1835 c 0,0.125 0.082,0.1875 0.246,0.1875 l 0.45,0 L 3.46,3.2578 2.656,0.957 2.195,0.957 1.418,3.2578 0.769,0.371 l 0.477,0 C 1.41,0.371 1.492,0.3085 1.492,0.1835 1.492,0.0664 1.41,0 1.246,0 l -1,0 C 0.082,0 0,0.0664 0,0.1835 0,0.3085 0.082,0.371 0.246,0.371 l 0.172,0 0.757,3.3907 0.461,0 0.805,-2.336 0.82,2.336 0.453,0 z"
         transform="translate(145.728,66.9395)"
         id="path55"
         inkscape:connector-curvature="0" />
      <path
         style="fill:#008040;fill-rule:evenodd;stroke:none"
         d="m 1.027,0.125 -0.676,0 c -0.164,0 -0.246,0.0664 -0.246,0.1835 0,0.125 0.082,0.1875 0.246,0.1875 l 0.305,0 0,3.0196 -0.406,0 C 0.078,3.5156 0,3.582 0,3.6992 0,3.8242 0.078,3.8867 0.25,3.8867 l 1.183,0 C 1.598,3.8867 1.68,3.8242 1.68,3.6992 1.68,3.582 1.598,3.5156 1.433,3.5156 l -0.406,0 0,-2.2813 C 1.316,0.8671 1.406,0.7656 1.543,0.6679 1.797,0.4609 2.058,0.371 2.398,0.371 c 0.356,0 0.528,0.0547 0.743,0.2344 0.226,0.1875 0.343,0.4141 0.343,0.6836 l 0,2.2266 -0.308,0 c -0.16,0 -0.243,0.0664 -0.243,0.1836 0,0.125 0.083,0.1875 0.243,0.1875 l 0.984,0 c 0.164,0 0.246,-0.0625 0.246,-0.1875 C 4.406,3.582 4.324,3.5156 4.16,3.5156 l -0.305,0 0,-2.2891 C 3.855,0.5312 3.238,0 2.437,0 1.875,0 1.551,0.1718 1.027,0.75 l 0,-0.625 z"
         transform="translate(151.338,66.8145)"
         id="path57"
         inkscape:connector-curvature="0" />
      <path
         style="fill:#008040;fill-rule:evenodd;stroke:none"
         d="m 4.325,5.0782 0,-4.7071 0.308,0 c 0.16,0 0.242,-0.0625 0.242,-0.1875 C 4.875,0.0665 4.793,0 4.633,0 L 3.286,0 c -0.172,0 -0.25,0.0665 -0.25,0.1836 0,0.125 0.078,0.1875 0.25,0.1875 l 0.668,0 0,4.1758 L 1.2,0 0.243,0 C 0.083,0 0,0.0665 0,0.1836 0,0.3086 0.083,0.3711 0.243,0.3711 l 0.488,0 0,4.336 -0.305,0 c -0.164,0 -0.246,0.0664 -0.246,0.1836 0,0.125 0.082,0.1875 0.246,0.1875 l 1.352,0 c 0.156,0 0.246,-0.0625 0.246,-0.1875 0,-0.1172 -0.082,-0.1836 -0.246,-0.1836 l -0.676,0 0,-4.1719 2.754,4.543 0.469,0 z"
         transform="translate(161.855,65.623)"
         id="path59"
         inkscape:connector-curvature="0" />
      <path
         style="fill:#008040;fill-rule:evenodd;stroke:none"
         d="m 4.324,5.0782 0,-4.7071 0.309,0 c 0.16,0 0.242,-0.0625 0.242,-0.1875 C 4.875,0.0665 4.793,0 4.633,0 L 3.285,0 c -0.172,0 -0.25,0.0665 -0.25,0.1836 0,0.125 0.078,0.1875 0.25,0.1875 l 0.668,0 0,4.1758 L 1.199,0 0.242,0 C 0.082,0 0,0.0665 0,0.1836 0,0.3086 0.082,0.3711 0.242,0.3711 l 0.488,0 0,4.336 -0.304,0 c -0.164,0 -0.246,0.0664 -0.246,0.1836 0,0.125 0.082,0.1875 0.246,0.1875 l 1.351,0 c 0.156,0 0.246,-0.0625 0.246,-0.1875 0,-0.1172 -0.082,-0.1836 -0.246,-0.1836 l -0.676,0 0,-4.1719 2.754,4.543 0.469,0 z"
         transform="translate(167.255,65.623)"
         id="path61"
         inkscape:connector-curvature="0" />
      <path
         style="fill:none;stroke:#004040;stroke-width:1;stroke-linecap:butt;stroke-linejoin:round;stroke-dasharray:none"
         d="M 0,0 0,15"
         transform="translate(150.857,47)"
         id="path63"
         inkscape:connector-curvature="0" />
      <path
         style="fill:#004080;fill-rule:evenodd;stroke:none"
         d="m 4,6.5742 1.355,0 L 5.355,0 4,0 4,4.4727 1.39,0 0,0 l 0,6.5742 1.355,0 0,-4.5429 L 4,6.5742 z"
         transform="translate(207.221,34.7246)"
         id="path65"
         inkscape:connector-curvature="0" />
      <path
         style="fill:#004080;fill-rule:evenodd;stroke:none"
         d="m 1.352,4.2305 1.691,0 C 4.254,4.2305 5.027,3.375 5.027,2.0391 5.027,0.7227 4.281,0 2.906,0 L 0,0 l 0,6.5742 1.352,0 0,-2.3437 z m 0,-1.1289 0,-1.9727 1.265,0 c 0.723,0 1.059,0.3164 1.059,0.9922 0,0.668 -0.336,0.9805 -1.059,0.9805 l -1.265,0 z"
         transform="translate(213.792,34.7246)"
         id="path67"
         inkscape:connector-curvature="0" />
      <path
         style="fill:#008040;fill-rule:evenodd;stroke:none"
         d="m 1.5,2.0546 1.704,0 C 3.368,2.0546 3.45,1.9921 3.45,1.8671 3.45,1.75 3.368,1.6836 3.204,1.6836 l -1.704,0 0,-0.5469 c 0,-0.4531 0.407,-0.7696 1,-0.7696 0.2,0 0.551,0.0274 0.797,0.0547 0.434,0.0547 0.434,0.0547 0.449,0.0547 0.11,0 0.192,-0.0703 0.192,-0.1797 C 3.938,0.207 3.883,0.1445 3.774,0.1171 3.485,0.0625 2.864,0 2.52,0 1.707,0 1.129,0.4765 1.129,1.1367 l 0,0.5469 -0.797,0 c -0.16,0 -0.242,0.0664 -0.242,0.1835 0,0.125 0.082,0.1875 0.242,0.1875 l 0.797,0 0,3.0196 -0.886,0 C 0.082,5.0742 0,5.1406 0,5.2578 0,5.3828 0.082,5.4453 0.243,5.4453 l 2.863,0 c 0.152,0 0.242,-0.0625 0.242,-0.1875 0,-0.1172 -0.078,-0.1836 -0.242,-0.1836 l -1.606,0 0,-3.0196 z"
         transform="translate(197.608,65.2559)"
         id="path69"
         inkscape:connector-curvature="0" />
      <path
         style="fill:#008040;fill-rule:evenodd;stroke:none"
         d="M 2.063,0 C 0.914,0 0,0.9023 0,2.0117 0,3.1367 0.914,4.0312 2.063,4.0312 3.199,4.0312 4.121,3.1367 4.121,2.039 4.121,0.8945 3.215,0 2.063,0 z m 0,0.371 c 0.945,0 1.687,0.7188 1.687,1.668 0,0.8906 -0.758,1.6211 -1.687,1.6211 -0.942,0 -1.692,-0.7305 -1.692,-1.6484 0,-0.9102 0.75,-1.6407 1.692,-1.6407 z"
         transform="translate(202.707,66.8145)"
         id="path71"
         inkscape:connector-curvature="0" />
      <path
         style="fill:#008040;fill-rule:evenodd;stroke:none"
         d="M 2.512,1.7851 3.98,0.371 l 0.067,0 c 0.16,0 0.242,-0.0625 0.242,-0.1875 C 4.289,0.0664 4.207,0 4.047,0 L 3.051,0 c -0.16,0 -0.242,0.0664 -0.242,0.1835 0,0.125 0.082,0.1875 0.242,0.1875 l 0.433,0 L 2.25,1.5429 1.039,0.371 l 0.414,0 C 1.617,0.371 1.699,0.3085 1.699,0.1835 1.699,0.0546 1.617,0 1.453,0 l -1,0 C 0.289,0 0.207,0.0664 0.207,0.1835 c 0,0.125 0.082,0.1875 0.246,0.1875 l 0.063,0 1.472,1.4141 -1.664,1.6055 -0.082,0 C 0.082,3.3906 0,3.457 0,3.5742 0,3.6992 0.082,3.7617 0.242,3.7617 l 1.203,0 c 0.16,0 0.242,-0.0625 0.242,-0.1875 0,-0.1172 -0.082,-0.1836 -0.242,-0.1836 l -0.613,0 1.418,-1.3438 1.398,1.3438 -0.586,0 c -0.164,0 -0.246,0.0664 -0.246,0.1836 0,0.125 0.082,0.1875 0.246,0.1875 l 1.192,0 c 0.16,0 0.242,-0.0625 0.242,-0.1875 0,-0.1172 -0.082,-0.1836 -0.242,-0.1836 l -0.082,0 -1.66,-1.6055 z"
         transform="translate(207.919,66.9395)"
         id="path73"
         inkscape:connector-curvature="0" />
      <path
         style="fill:#008040;fill-rule:evenodd;stroke:none"
         d="m 4.324,5.0782 0,-4.7071 0.309,0 c 0.16,0 0.242,-0.0625 0.242,-0.1875 C 4.875,0.0665 4.793,0 4.633,0 L 3.285,0 c -0.172,0 -0.25,0.0665 -0.25,0.1836 0,0.125 0.078,0.1875 0.25,0.1875 l 0.668,0 0,4.1758 L 1.199,0 0.242,0 C 0.082,0 0,0.0665 0,0.1836 0,0.3086 0.082,0.3711 0.242,0.3711 l 0.489,0 0,4.336 -0.305,0 c -0.164,0 -0.246,0.0664 -0.246,0.1836 0,0.125 0.082,0.1875 0.246,0.1875 l 1.351,0 c 0.157,0 0.246,-0.0625 0.246,-0.1875 0,-0.1172 -0.082,-0.1836 -0.246,-0.1836 l -0.675,0 0,-4.1719 2.754,4.543 0.468,0 z"
         transform="translate(218.456,65.623)"
         id="path75"
         inkscape:connector-curvature="0" />
      <path
         style="fill:#008040;fill-rule:evenodd;stroke:none"
         d="m 4.325,5.0782 0,-4.7071 0.308,0 c 0.16,0 0.242,-0.0625 0.242,-0.1875 C 4.875,0.0665 4.793,0 4.633,0 L 3.286,0 c -0.172,0 -0.25,0.0665 -0.25,0.1836 0,0.125 0.078,0.1875 0.25,0.1875 l 0.668,0 0,4.1758 L 1.2,0 0.243,0 C 0.083,0 0,0.0665 0,0.1836 0,0.3086 0.083,0.3711 0.243,0.3711 l 0.488,0 0,4.336 -0.305,0 c -0.164,0 -0.246,0.0664 -0.246,0.1836 0,0.125 0.082,0.1875 0.246,0.1875 l 1.352,0 c 0.156,0 0.246,-0.0625 0.246,-0.1875 0,-0.1172 -0.082,-0.1836 -0.246,-0.1836 l -0.676,0 0,-4.1719 2.754,4.543 0.469,0 z"
         transform="translate(223.855,65.623)"
         id="path77"
         inkscape:connector-curvature="0" />
      <path
         style="fill:none;stroke:#004040;stroke-width:1;stroke-linecap:butt;stroke-linejoin:round;stroke-dasharray:none"
         d="M 0,0 0,15"
         transform="translate(212.857,47)"
         id="path79"
         inkscape:connector-curvature="0" />
      <path
         style="fill:#008040;fill-rule:evenodd;stroke:none"
         d="m 2.438,2.2343 0,3.6446 c 0,0.6133 -0.441,1.0547 -1.039,1.0547 l -1.156,0 C 0.083,6.9336 0,6.9961 0,7.1133 0,7.2383 0.083,7.3008 0.243,7.3008 l 1.168,0 c 0.82,0 1.398,-0.586 1.398,-1.4219 l 0,-4.0156 -2.547,0 c -0.164,0 -0.246,0.0664 -0.246,0.1835 0,0.125 0.082,0.1875 0.246,0.1875 l 2.176,0 z M 2.411,0 1.879,0 l 0,0.9375 0.532,0 0,-0.9375 z"
         transform="translate(256.188,35.0762)"
         id="path81"
         inkscape:connector-curvature="0" />
      <path
         style="fill:#008040;fill-rule:evenodd;stroke:none"
         d="m 3.579,3.7617 0.675,0 C 4.418,3.7617 4.5,3.6992 4.5,3.5742 4.5,3.457 4.418,3.3906 4.254,3.3906 l -0.304,0 L 3.95,0 2.911,0 C 2.739,0 2.657,0.0664 2.657,0.1835 c 0,0.125 0.082,0.1875 0.254,0.1875 l 0.668,0 0,2.3555 C 3.083,3.2656 2.532,3.5351 1.926,3.5351 1.465,3.5351 1.102,3.1757 1.102,2.7265 L 1.102,0 0.247,0 C 0.083,0 0,0.0664 0,0.1835 0,0.3085 0.083,0.371 0.247,0.371 l 0.488,0 0,2.3555 c 0,0.711 0.476,1.1797 1.199,1.1797 0.598,0 1.149,-0.2539 1.645,-0.7383 l 0,0.5938 z"
         transform="translate(260.646,36.9395)"
         id="path83"
         inkscape:connector-curvature="0" />
      <path
         style="fill:#008040;fill-rule:evenodd;stroke:none"
         d="m 0.914,0.125 -0.668,0 C 0.082,0.125 0,0.1914 0,0.3085 0,0.4335 0.082,0.496 0.246,0.496 l 0.305,0 0,3.0196 -0.305,0 C 0.082,3.5156 0,3.582 0,3.6992 0,3.8242 0.082,3.8867 0.238,3.8867 l 0.984,0 c 0.153,0 0.243,-0.0625 0.243,-0.1875 0,-0.1172 -0.082,-0.1836 -0.243,-0.1836 l -0.308,0 0,-2.4063 C 1.258,0.5937 1.547,0.371 1.863,0.371 c 0.305,0 0.586,0.3165 0.586,0.668 l 0,2.8477 0.668,0 c 0.164,0 0.242,-0.0625 0.242,-0.1875 0,-0.1172 -0.078,-0.1836 -0.242,-0.1836 l -0.309,0 0,-2.4063 C 3.152,0.5859 3.426,0.371 3.75,0.371 c 0.316,0 0.594,0.2969 0.594,0.6407 l 0,2.875 0.671,0 c 0.161,0 0.243,-0.0625 0.243,-0.1875 0,-0.1172 -0.082,-0.1836 -0.243,-0.1836 l -0.308,0 0,-2.543 C 4.707,0.4414 4.281,0 3.758,0 3.387,0 3.09,0.1914 2.738,0.6406 2.539,0.207 2.25,0 1.863,0 1.484,0 1.222,0.164 0.914,0.5937 l 0,-0.4687 z"
         transform="translate(265.757,36.8145)"
         id="path85"
         inkscape:connector-curvature="0" />
      <path
         style="fill:#008040;fill-rule:evenodd;stroke:none"
         d="m 1.101,0.125 -0.859,0 C 0.082,0.125 0,0.1914 0,0.3085 0,0.4335 0.082,0.496 0.242,0.496 l 0.488,0 0,4.6993 -0.488,0 C 0.082,5.1953 0,5.2578 0,5.375 0,5.5 0.082,5.5625 0.242,5.5625 l 1.742,0 C 2.148,5.5625 2.23,5.5 2.23,5.375 2.23,5.2578 2.148,5.1953 1.984,5.1953 l -0.883,0 0,-2.2657 c 0.414,0.5977 0.922,0.8672 1.618,0.8672 1.109,0 1.968,-0.8281 1.968,-1.9023 C 4.687,0.8203 3.836,0 2.719,0 2.031,0 1.578,0.2421 1.101,0.8671 l 0,-0.7421 z m 1.606,0.246 c 0.914,0 1.609,0.668 1.609,1.5391 C 4.316,2.75 3.594,3.4257 2.707,3.4257 1.816,3.4257 1.101,2.75 1.101,1.8945 1.101,1.0468 1.816,0.371 2.707,0.371 z"
         transform="translate(271.258,36.8145)"
         id="path87"
         inkscape:connector-curvature="0" />
      <path
         style="fill:#008040;fill-rule:evenodd;stroke:none"
         d="M 4.125,2.0937 C 4.125,1.6757 4.098,1.5078 3.973,1.207 3.649,0.4609 2.926,0 2.059,0 0.903,0 0,0.8398 0,1.9296 0,3.1015 0.965,4.0312 2.184,4.0312 3.008,4.0312 4.09,3.6054 4.09,3.2929 4.09,3.1914 4.008,3.1093 3.918,3.1093 3.871,3.1093 3.836,3.1289 3.774,3.1757 3.414,3.4648 2.754,3.6601 2.192,3.6601 1.219,3.6601 0.496,3.039 0.368,2.0937 l 3.757,0 z M 0.368,1.7226 C 0.532,0.8945 1.184,0.371 2.059,0.371 c 0.875,0 1.543,0.5313 1.687,1.3516 l -3.378,0 z"
         transform="translate(277.028,36.8145)"
         id="path89"
         inkscape:connector-curvature="0" />
      <path
         style="fill:#008040;fill-rule:evenodd;stroke:none"
         d="M 3.965,0 3.105,0 C 2.941,0 2.863,0.0625 2.863,0.1796 c 0,0.125 0.078,0.1875 0.242,0.1875 l 0.488,0 0,2.129 C 3.148,1.8554 2.625,1.5586 1.949,1.5586 0.875,1.5586 0,2.4609 0,3.5703 c 0,1.1093 0.875,2.0195 1.949,2.0195 0.676,0 1.219,-0.3164 1.644,-0.9453 l 0,0.8008 0.856,0 c 0.164,0 0.246,-0.0625 0.246,-0.1875 0,-0.1172 -0.082,-0.1836 -0.246,-0.1836 l -0.484,0 L 3.965,0 z M 1.976,1.9296 c 0.91,0 1.617,0.7188 1.617,1.6563 0,0.9023 -0.722,1.6328 -1.609,1.6328 -0.902,0 -1.617,-0.7305 -1.617,-1.6484 0,-0.9102 0.715,-1.6407 1.609,-1.6407 z"
         transform="translate(282.428,35.2559)"
         id="path91"
         inkscape:connector-curvature="0" />
      <path
         style="fill:#008040;fill-rule:evenodd;stroke:none"
         d="m 2.328,5.0782 0.516,0 1.887,-4.7071 0.281,0 c 0.164,0 0.242,-0.0625 0.242,-0.1875 C 5.254,0.0547 5.176,0 5.012,0 L 3.657,0 C 3.485,0 3.414,0.0665 3.414,0.1836 c 0,0.125 0.082,0.1875 0.243,0.1875 l 0.703,0 -1.743,4.336 -0.027,0 -1.68,-4.336 0.696,0 C 1.77,0.3711 1.852,0.3086 1.852,0.1836 1.852,0.0547 1.77,0 1.606,0 L 0.242,0 C 0.082,0 0,0.0547 0,0.1836 0,0.3086 0.082,0.3711 0.242,0.3711 l 0.282,0 1.804,4.7071 z"
         transform="translate(292.738,35.623)"
         id="path93"
         inkscape:connector-curvature="0" />
      <path
         style="fill:#008040;fill-rule:evenodd;stroke:none"
         d="m 0.735,4.7071 -0.489,0 C 0.082,4.7071 0,4.7735 0,4.8907 0,5.0157 0.082,5.0782 0.246,5.0782 l 2.762,0 C 3.832,5.0782 4.5,4.4571 4.5,3.6993 4.5,3.0938 4.11,2.6602 3.352,2.3907 3.887,2.1016 4.121,1.7696 4.121,1.3086 4.121,0.5704 3.454,0 2.575,0 L 0.246,0 C 0.082,0 0,0.0665 0,0.1836 0,0.3086 0.082,0.3711 0.246,0.3711 l 0.489,0 0,4.336 z m 0.367,-2.4492 0,-1.8868 1.484,0 c 0.657,0 1.164,0.4063 1.164,0.9297 0,0.5586 -0.55,0.9571 -1.32,0.9571 l -1.328,0 z m 0,2.4492 0,-2.0821 1.348,0 c 0.55,0 0.859,0.0625 1.148,0.2344 0.332,0.1992 0.531,0.5156 0.531,0.8399 0,0.5586 -0.508,1.0078 -1.148,1.0078 l -1.879,0 z"
         transform="translate(298.442,35.623)"
         id="path95"
         inkscape:connector-curvature="0" />
      <path
         style="fill:#008040;fill-rule:evenodd;stroke:none"
         d="m 0.551,4.7071 -0.305,0 C 0.082,4.7071 0,4.7735 0,4.8907 0,5.0157 0.082,5.0782 0.246,5.0782 l 1.984,0 c 1.168,0 2.078,-1.0117 2.078,-2.2891 l 0,-0.5078 C 4.308,1.0118 3.398,0 2.23,0 L 0.246,0 C 0.082,0 0,0.0665 0,0.1836 0,0.3086 0.082,0.3711 0.246,0.3711 l 0.305,0 0,4.336 z m 0.371,0 0,-4.336 1.293,0 c 0.488,0 0.82,0.1368 1.136,0.4493 0.364,0.3711 0.586,0.914 0.586,1.3906 l 0,0.6562 c 0,0.9571 -0.793,1.8399 -1.66,1.8399 l -1.355,0 z"
         transform="translate(303.842,35.623)"
         id="path97"
         inkscape:connector-curvature="0" />
      <path
         style="fill:#008040;fill-rule:evenodd;stroke:none"
         d="M 2.063,0 C 0.914,0 0,0.9023 0,2.0117 0,3.1367 0.914,4.0312 2.063,4.0312 3.2,4.0312 4.122,3.1367 4.122,2.039 4.122,0.8945 3.215,0 2.063,0 z m 0,0.371 c 0.945,0 1.687,0.7188 1.687,1.668 0,0.8906 -0.757,1.6211 -1.687,1.6211 -0.941,0 -1.691,-0.7305 -1.691,-1.6484 0,-0.9102 0.75,-1.6407 1.691,-1.6407 z"
         transform="translate(334.607,36.8145)"
         id="path99"
         inkscape:connector-curvature="0" />
      <path
         style="fill:#008040;fill-rule:evenodd;stroke:none"
         d="m 2.766,3.7617 1.5,-3.3907 0.367,0 C 4.797,0.371 4.879,0.3085 4.879,0.1835 4.879,0.0664 4.797,0 4.633,0 L 3.262,0 C 3.098,0 3.019,0.0664 3.019,0.1835 c 0,0.125 0.079,0.1875 0.243,0.1875 l 0.613,0 -1.328,3.0196 -0.172,0 -1.352,-3.0196 0.586,0 C 1.781,0.371 1.863,0.3085 1.863,0.1835 1.863,0.0664 1.781,0 1.609,0 L 0.246,0 C 0.082,0 0,0.0664 0,0.1835 0,0.3085 0.082,0.371 0.246,0.371 l 0.371,0 1.516,3.3907 0.633,0 z"
         transform="translate(339.628,36.9395)"
         id="path101"
         inkscape:connector-curvature="0" />
      <path
         style="fill:#008040;fill-rule:evenodd;stroke:none"
         d="M 4.125,2.0937 C 4.125,1.6757 4.098,1.5078 3.973,1.207 3.649,0.4609 2.926,0 2.059,0 0.902,0 0,0.8398 0,1.9296 0,3.1015 0.965,4.0312 2.184,4.0312 3.008,4.0312 4.09,3.6054 4.09,3.2929 4.09,3.1914 4.008,3.1093 3.918,3.1093 3.871,3.1093 3.836,3.1289 3.774,3.1757 3.414,3.4648 2.754,3.6601 2.192,3.6601 1.219,3.6601 0.496,3.039 0.367,2.0937 l 3.758,0 z M 0.367,1.7226 C 0.531,0.8945 1.184,0.371 2.059,0.371 c 0.875,0 1.543,0.5313 1.687,1.3516 l -3.379,0 z"
         transform="translate(345.328,36.8145)"
         id="path103"
         inkscape:connector-curvature="0" />
      <path
         style="fill:#008040;fill-rule:evenodd;stroke:none"
         d="m 1.481,0.0899 -1.047,0 c -0.153,0 -0.243,0.0742 -0.243,0.1835 0,0.1172 0.09,0.1875 0.243,0.1875 l 0.679,0 0,3.0196 -0.867,0 C 0.09,3.4805 0,3.5547 0,3.6641 0,3.7813 0.09,3.8516 0.246,3.8516 l 2.852,0 c 0.152,0 0.246,-0.0703 0.246,-0.1797 0,-0.1172 -0.094,-0.1914 -0.246,-0.1914 l -1.617,0 0,-1.9922 C 2.477,0.5781 2.793,0.3711 3.199,0.3711 c 0.196,0 0.379,0.0977 0.594,0.3047 C 3.856,0.7422 3.875,0.75 3.938,0.75 4.047,0.75 4.129,0.668 4.129,0.5586 4.129,0.4805 4.074,0.4063 3.922,0.2813 3.684,0.082 3.488,0 3.227,0 2.766,0 2.32,0.2539 1.481,1.0117 l 0,-0.9218 z"
         transform="translate(350.915,36.8496)"
         id="path105"
         inkscape:connector-curvature="0" />
      <path
         style="fill:#008040;fill-rule:evenodd;stroke:none"
         d="m 1.871,0.3711 1.254,0 c 0.171,0 0.253,-0.0625 0.253,-0.1875 C 3.378,0.0665 3.296,0 3.125,0 L 0.246,0 C 0.082,0 0,0.0665 0,0.1836 0,0.3086 0.082,0.3711 0.246,0.3711 l 1.254,0 0,4.336 -1.254,0 C 0.082,4.7071 0,4.7735 0,4.8907 0,5.0157 0.082,5.0782 0.246,5.0782 l 2.879,0 c 0.164,0 0.253,-0.0625 0.253,-0.1875 0,-0.1172 -0.082,-0.1836 -0.253,-0.1836 l -1.254,0 0,-4.336 z"
         transform="translate(361.976,35.623)"
         id="path107"
         inkscape:connector-curvature="0" />
      <path
         style="fill:#008040;fill-rule:evenodd;stroke:none"
         d="m 4.324,5.0782 0,-4.7071 0.309,0 c 0.16,0 0.242,-0.0625 0.242,-0.1875 C 4.875,0.0665 4.793,0 4.633,0 L 3.285,0 c -0.172,0 -0.25,0.0665 -0.25,0.1836 0,0.125 0.078,0.1875 0.25,0.1875 l 0.668,0 0,4.1758 L 1.199,0 0.242,0 C 0.082,0 0,0.0665 0,0.1836 0,0.3086 0.082,0.3711 0.242,0.3711 l 0.488,0 0,4.336 -0.305,0 c -0.164,0 -0.246,0.0664 -0.246,0.1836 0,0.125 0.082,0.1875 0.246,0.1875 l 1.352,0 c 0.156,0 0.246,-0.0625 0.246,-0.1875 0,-0.1172 -0.082,-0.1836 -0.246,-0.1836 l -0.676,0 0,-4.1719 2.754,4.543 0.469,0 z"
         transform="translate(366.555,35.623)"
         id="path109"
         inkscape:connector-curvature="0" />
      <path
         style="fill:#004080;fill-rule:evenodd;stroke:none"
         d="m 4,6.5742 1.355,0 L 5.355,0 4,0 4,4.4727 1.39,0 0,0 l 0,6.5742 1.355,0 0,-4.5429 L 4,6.5742 z"
         transform="translate(428.221,34.7246)"
         id="path111"
         inkscape:connector-curvature="0" />
      <path
         style="fill:#004080;fill-rule:evenodd;stroke:none"
         d="m 1.352,4.2305 1.691,0 C 4.254,4.2305 5.027,3.375 5.027,2.0391 5.027,0.7227 4.281,0 2.906,0 L 0,0 l 0,6.5742 1.352,0 0,-2.3437 z m 0,-1.1289 0,-1.9727 1.265,0 c 0.723,0 1.059,0.3164 1.059,0.9922 0,0.668 -0.336,0.9805 -1.059,0.9805 l -1.265,0 z"
         transform="translate(434.792,34.7246)"
         id="path113"
         inkscape:connector-curvature="0" />
      <path
         style="fill:#008040;fill-rule:evenodd;stroke:none"
         d="m 1.293,1.3165 0,-1.0704 C 1.293,0.0743 1.238,0 1.113,0 0.984,0 0.922,0.0821 0.922,0.2461 l 0,1.0704 -0.668,0 C 0.082,1.3165 0,1.3829 0,1.5 0,1.625 0.082,1.6875 0.254,1.6875 l 0.668,0 0,2.4258 c 0,0.6758 0.551,1.1094 1.402,1.1094 0.766,0 1.797,-0.3437 1.797,-0.6055 0,-0.0898 -0.082,-0.1797 -0.172,-0.1797 -0.047,0 -0.074,0.0079 -0.144,0.0547 -0.352,0.2071 -0.997,0.3594 -1.5,0.3594 -0.625,0 -1.012,-0.2969 -1.012,-0.7578 l 0,-2.4063 1.988,0 C 3.441,1.6875 3.523,1.625 3.523,1.5 3.523,1.3829 3.441,1.3165 3.281,1.3165 l -1.988,0 z"
         transform="translate(390.796,65.623)"
         id="path115"
         inkscape:connector-curvature="0" />
      <path
         style="fill:#008040;fill-rule:evenodd;stroke:none"
         d="M 1.102,0 0.246,0 C 0.082,0 0,0.0625 0,0.1796 0,0.3046 0.082,0.3671 0.246,0.3671 l 0.489,0 0,4.7071 -0.418,0 c -0.16,0 -0.242,0.0664 -0.242,0.1836 0,0.125 0.089,0.1875 0.242,0.1875 l 1.191,0 c 0.164,0 0.254,-0.0625 0.254,-0.1875 0,-0.1172 -0.082,-0.1836 -0.254,-0.1836 l -0.406,0 0,-2.2969 0.101,-0.1172 C 1.692,2.082 1.942,1.9296 2.45,1.9296 c 0.359,0 0.558,0.0625 0.765,0.2344 0.227,0.1797 0.344,0.4141 0.344,0.6836 l 0,2.2266 -0.406,0 c -0.16,0 -0.243,0.0664 -0.243,0.1836 0,0.125 0.083,0.1875 0.243,0.1875 l 1.183,0 C 4.508,5.4453 4.59,5.3828 4.59,5.2578 4.59,5.1406 4.508,5.0742 4.336,5.0742 l -0.406,0 0,-2.2539 c 0,-0.7305 -0.598,-1.2617 -1.437,-1.2617 -0.551,0 -0.93,0.207 -1.391,0.7578 L 1.102,0 z"
         transform="translate(396.195,65.2559)"
         id="path117"
         inkscape:connector-curvature="0" />
      <path
         style="fill:#008040;fill-rule:evenodd;stroke:none"
         d="M 4.125,2.0937 C 4.125,1.6757 4.098,1.5078 3.973,1.207 3.649,0.4609 2.926,0 2.059,0 0.903,0 0,0.8398 0,1.9296 0,3.1015 0.965,4.0312 2.184,4.0312 3.008,4.0312 4.09,3.6054 4.09,3.2929 4.09,3.1914 4.008,3.1093 3.918,3.1093 3.871,3.1093 3.836,3.1289 3.774,3.1757 3.414,3.4648 2.754,3.6601 2.192,3.6601 1.219,3.6601 0.496,3.039 0.368,2.0937 l 3.757,0 z M 0.368,1.7226 C 0.532,0.8945 1.184,0.371 2.059,0.371 c 0.875,0 1.543,0.5313 1.687,1.3516 l -3.378,0 z"
         transform="translate(401.778,66.8145)"
         id="path119"
         inkscape:connector-curvature="0" />
      <path
         style="fill:#008040;fill-rule:evenodd;stroke:none"
         d="m 0.55,4.7071 -0.304,0 C 0.082,4.7071 0,4.7735 0,4.8907 0,5.0157 0.082,5.0782 0.246,5.0782 l 1.984,0 c 1.168,0 2.078,-1.0117 2.078,-2.2891 l 0,-0.5078 C 4.308,1.0118 3.398,0 2.23,0 L 0.246,0 C 0.082,0 0,0.0665 0,0.1836 0,0.3086 0.082,0.3711 0.246,0.3711 l 0.304,0 0,4.336 z m 0.371,0 0,-4.336 1.293,0 c 0.489,0 0.821,0.1368 1.137,0.4493 0.363,0.3711 0.586,0.914 0.586,1.3906 l 0,0.6562 c 0,0.9571 -0.793,1.8399 -1.66,1.8399 l -1.356,0 z"
         transform="translate(412.394,65.623)"
         id="path121"
         inkscape:connector-curvature="0" />
      <path
         style="fill:#008040;fill-rule:evenodd;stroke:none"
         d="m 2.25,4.7071 0,-4.336 1.5,0 0,0.6602 c 0,0.1445 0.082,0.2422 0.187,0.2422 0.129,0 0.184,-0.0742 0.184,-0.2422 L 4.121,0 0,0 0,1.0313 c 0,0.1602 0.066,0.2422 0.183,0.2422 0.125,0 0.188,-0.082 0.188,-0.2422 l 0,-0.6602 1.508,0 0,4.336 -0.946,0 c -0.164,0 -0.246,0.0664 -0.246,0.1836 0,0.125 0.082,0.1875 0.246,0.1875 l 2.266,0 c 0.16,0 0.242,-0.0625 0.242,-0.1875 0,-0.1172 -0.082,-0.1836 -0.242,-0.1836 l -0.949,0 z"
         transform="translate(418.055,65.623)"
         id="path123"
         inkscape:connector-curvature="0" />
      <path
         style="fill:#008040;fill-rule:evenodd;stroke:none"
         d="M 2.059,0 0.633,0 C 0.469,0 0.387,0.0625 0.387,0.1796 c 0,0.125 0.082,0.1875 0.246,0.1875 l 1.055,0 0,4.7071 -1.446,0 C 0.082,5.0742 0,5.1406 0,5.2578 0,5.3828 0.082,5.4453 0.242,5.4453 l 3.262,0 c 0.16,0 0.25,-0.0625 0.25,-0.1875 0,-0.1172 -0.078,-0.1836 -0.25,-0.1836 l -1.445,0 0,-5.0742 z"
         transform="translate(442.541,65.2559)"
         id="path125"
         inkscape:connector-curvature="0" />
      <path
         style="fill:#008040;fill-rule:evenodd;stroke:none"
         d="m 3.137,3.8867 0.855,0 c 0.164,0 0.246,-0.0625 0.246,-0.1875 0,-0.1172 -0.082,-0.1836 -0.246,-0.1836 l -0.488,0 0,-2.4063 C 3.504,0.4687 2.89,0 2.051,0 1.719,0 1.129,0.1171 0.633,0.289 0.535,0.3242 0.48,0.3867 0.48,0.4765 c 0,0.1016 0.082,0.1836 0.172,0.1836 0.02,0 0.055,-0.0117 0.09,-0.0195 C 1.445,0.4257 1.699,0.371 2.023,0.371 c 0.66,0 1.114,0.2969 1.114,0.7383 l 0,0.6407 C 2.601,1.6054 2.324,1.5585 1.906,1.5585 0.777,1.5585 0,2.0937 0,2.875 c 0,0.6875 0.57,1.1562 1.41,1.1562 0.633,0 1.176,-0.2344 1.727,-0.75 l 0,0.6055 z m 0,-1.0117 C 2.531,3.4453 2.043,3.6601 1.402,3.6601 c -0.625,0 -1.031,-0.3047 -1.031,-0.7734 0,-0.5703 0.652,-0.9571 1.609,-0.9571 0.395,0 0.828,0.0547 1.157,0.1368 l 0,0.8086 z"
         transform="translate(447.757,66.8145)"
         id="path127"
         inkscape:connector-curvature="0" />
      <path
         style="fill:#008040;fill-rule:evenodd;stroke:none"
         d="m 3.242,0 -3.16,0 0,0.8671 c 0,0.1641 0.062,0.2422 0.187,0.2422 0.118,0 0.18,-0.0781 0.18,-0.2422 l 0,-0.4961 2.27,0 L 0,3.4375 l 0,0.3242 3.379,0 0,-0.875 c 0,-0.1602 -0.067,-0.2422 -0.184,-0.2422 -0.125,0 -0.187,0.082 -0.187,0.2422 l 0,0.5039 -2.504,0 L 3.242,0.3281 3.242,0 z"
         transform="translate(453.547,66.9395)"
         id="path129"
         inkscape:connector-curvature="0" />
      <path
         style="fill:#008040;fill-rule:evenodd;stroke:none"
         d="m 2.086,3.7617 -0.641,1.3086 -1.148,0 c -0.16,0 -0.242,0.0625 -0.242,0.1797 0,0.125 0.082,0.1875 0.242,0.1875 l 2.106,0 c 0.16,0 0.242,-0.0625 0.242,-0.1875 0,-0.1172 -0.082,-0.1797 -0.242,-0.1797 l -0.586,0 2.308,-4.6993 0.129,0 c 0.16,0 0.242,-0.0625 0.242,-0.1875 C 4.496,0.0664 4.414,0 4.254,0 L 3.258,0 c -0.16,0 -0.242,0.0664 -0.242,0.1835 0,0.125 0.082,0.1875 0.242,0.1875 l 0.488,0 -1.453,2.9844 -1.48,-2.9844 0.468,0 C 1.445,0.371 1.528,0.3085 1.528,0.1835 1.528,0.0664 1.445,0 1.281,0 L 0.242,0 C 0.082,0 0,0.0664 0,0.1835 0,0.3085 0.082,0.371 0.242,0.371 l 0.145,0 1.699,3.3907 z"
         transform="translate(458.368,66.9395)"
         id="path131"
         inkscape:connector-curvature="0" />
      <path
         style="fill:#008040;fill-rule:evenodd;stroke:none"
         d="m 4.324,5.0782 0,-4.7071 0.309,0 c 0.16,0 0.242,-0.0625 0.242,-0.1875 C 4.875,0.0665 4.793,0 4.633,0 L 3.285,0 c -0.171,0 -0.25,0.0665 -0.25,0.1836 0,0.125 0.079,0.1875 0.25,0.1875 l 0.668,0 0,4.1758 L 1.199,0 0.242,0 C 0.082,0 0,0.0665 0,0.1836 0,0.3086 0.082,0.3711 0.242,0.3711 l 0.489,0 0,4.336 -0.305,0 c -0.164,0 -0.246,0.0664 -0.246,0.1836 0,0.125 0.082,0.1875 0.246,0.1875 l 1.352,0 c 0.156,0 0.246,-0.0625 0.246,-0.1875 0,-0.1172 -0.082,-0.1836 -0.246,-0.1836 l -0.676,0 0,-4.1719 2.754,4.543 0.468,0 z"
         transform="translate(468.905,65.623)"
         id="path133"
         inkscape:connector-curvature="0" />
      <path
         style="fill:#008040;fill-rule:evenodd;stroke:none"
         d="m 4.324,5.0782 0,-4.7071 0.309,0 c 0.16,0 0.242,-0.0625 0.242,-0.1875 C 4.875,0.0665 4.793,0 4.633,0 L 3.285,0 c -0.172,0 -0.25,0.0665 -0.25,0.1836 0,0.125 0.078,0.1875 0.25,0.1875 l 0.668,0 0,4.1758 L 1.199,0 0.242,0 C 0.082,0 0,0.0665 0,0.1836 0,0.3086 0.082,0.3711 0.242,0.3711 l 0.488,0 0,4.336 -0.305,0 c -0.164,0 -0.246,0.0664 -0.246,0.1836 0,0.125 0.082,0.1875 0.246,0.1875 l 1.352,0 c 0.156,0 0.246,-0.0625 0.246,-0.1875 0,-0.1172 -0.082,-0.1836 -0.246,-0.1836 l -0.676,0 0,-4.1719 2.754,4.543 0.469,0 z"
         transform="translate(474.305,65.623)"
         id="path135"
         inkscape:connector-curvature="0" />
      <path
         style="fill:none;stroke:#004040;stroke-width:1;stroke-linecap:butt;stroke-linejoin:round;stroke-dasharray:none"
         d="M 27,0 0,15"
         transform="translate(406.857,47)"
         id="path137"
         inkscape:connector-curvature="0" />
      <path
         style="fill:none;stroke:#004040;stroke-width:1;stroke-linecap:butt;stroke-linejoin:round;stroke-dasharray:none"
         d="M 0,0 27.5,15"
         transform="translate(433.857,47)"
         id="path139"
         inkscape:connector-curvature="0" />
      <path
         style="fill:#004080;fill-rule:evenodd;stroke:none"
         d="m 4,6.5742 1.355,0 L 5.355,0 4,0 4,4.4727 1.39,0 0,0 l 0,6.5742 1.355,0 0,-4.5429 L 4,6.5742 z"
         transform="translate(512.221,34.7246)"
         id="path141"
         inkscape:connector-curvature="0" />
      <path
         style="fill:#004080;fill-rule:evenodd;stroke:none"
         d="m 1.352,4.2305 1.691,0 C 4.254,4.2305 5.027,3.375 5.027,2.0391 5.027,0.7227 4.281,0 2.906,0 L 0,0 l 0,6.5742 1.352,0 0,-2.3437 z m 0,-1.1289 0,-1.9727 1.265,0 c 0.723,0 1.059,0.3164 1.059,0.9922 0,0.668 -0.336,0.9805 -1.059,0.9805 l -1.265,0 z"
         transform="translate(518.792,34.7246)"
         id="path143"
         inkscape:connector-curvature="0" />
      <path
         style="fill:#008040;fill-rule:evenodd;stroke:none"
         d="M 3.965,0 3.106,0 C 2.942,0 2.864,0.0625 2.864,0.1796 c 0,0.125 0.078,0.1875 0.242,0.1875 l 0.488,0 0,2.129 C 3.149,1.8554 2.625,1.5586 1.95,1.5586 0.875,1.5586 0,2.4609 0,3.5703 c 0,1.1093 0.875,2.0195 1.95,2.0195 0.675,0 1.218,-0.3164 1.644,-0.9453 l 0,0.8008 0.856,0 c 0.164,0 0.246,-0.0625 0.246,-0.1875 0,-0.1172 -0.082,-0.1836 -0.246,-0.1836 l -0.485,0 L 3.965,0 z M 1.977,1.9296 c 0.91,0 1.617,0.7188 1.617,1.6563 0,0.9023 -0.722,1.6328 -1.609,1.6328 -0.902,0 -1.617,-0.7305 -1.617,-1.6484 0,-0.9102 0.715,-1.6407 1.609,-1.6407 z"
         transform="translate(501.729,65.2559)"
         id="path145"
         inkscape:connector-curvature="0" />
      <path
         style="fill:#008040;fill-rule:evenodd;stroke:none"
         d="M 2.063,0 C 0.914,0 0,0.9023 0,2.0117 0,3.1367 0.914,4.0312 2.063,4.0312 3.199,4.0312 4.121,3.1367 4.121,2.039 4.121,0.8945 3.215,0 2.063,0 z m 0,0.371 c 0.945,0 1.687,0.7188 1.687,1.668 0,0.8906 -0.758,1.6211 -1.687,1.6211 -0.942,0 -1.692,-0.7305 -1.692,-1.6484 0,-0.9102 0.75,-1.6407 1.692,-1.6407 z"
         transform="translate(507.207,66.8145)"
         id="path147"
         inkscape:connector-curvature="0" />
      <path
         style="fill:#008040;fill-rule:evenodd;stroke:none"
         d="M 3.403,0.875 C 2.996,0.2695 2.52,0 1.86,0 0.84,0 0,0.8476 0,1.8945 c 0,1.0469 0.84,1.9023 1.86,1.9023 0.648,0 1.136,-0.2812 1.543,-0.875 l 0,1.1641 c 0,0.6133 -0.489,1.1094 -1.102,1.1094 l -1.047,0 c -0.164,0 -0.242,0.0625 -0.242,0.1797 0,0.125 0.078,0.1875 0.242,0.1875 l 1.031,0 c 0.45,0 0.786,-0.1524 1.102,-0.4844 C 3.657,4.789 3.774,4.5078 3.774,4.1406 l 0,-3.6446 0.488,0 c 0.16,0 0.242,-0.0625 0.242,-0.1875 C 4.504,0.1914 4.422,0.125 4.262,0.125 l -0.859,0 0,0.75 z M 1.887,0.371 c 0.856,0 1.516,0.668 1.516,1.5391 0,0.8399 -0.676,1.5156 -1.516,1.5156 -0.84,0 -1.519,-0.6757 -1.519,-1.5312 0,-0.8477 0.671,-1.5235 1.519,-1.5235 z"
         transform="translate(512.528,66.8145)"
         id="path149"
         inkscape:connector-curvature="0" />
      <path
         style="fill:#008040;fill-rule:evenodd;stroke:none"
         d="m 4.324,5.0782 0,-4.7071 0.309,0 c 0.16,0 0.242,-0.0625 0.242,-0.1875 C 4.875,0.0665 4.793,0 4.633,0 L 3.285,0 c -0.172,0 -0.25,0.0665 -0.25,0.1836 0,0.125 0.078,0.1875 0.25,0.1875 l 0.668,0 0,4.1758 L 1.199,0 0.242,0 C 0.082,0 0,0.0665 0,0.1836 0,0.3086 0.082,0.3711 0.242,0.3711 l 0.489,0 0,4.336 -0.305,0 c -0.164,0 -0.246,0.0664 -0.246,0.1836 0,0.125 0.082,0.1875 0.246,0.1875 l 1.351,0 c 0.157,0 0.246,-0.0625 0.246,-0.1875 0,-0.1172 -0.082,-0.1836 -0.246,-0.1836 l -0.675,0 0,-4.1719 2.754,4.543 0.468,0 z"
         transform="translate(522.956,65.623)"
         id="path151"
         inkscape:connector-curvature="0" />
      <path
         style="fill:#008040;fill-rule:evenodd;stroke:none"
         d="m 4.325,5.0782 0,-4.7071 0.308,0 c 0.16,0 0.242,-0.0625 0.242,-0.1875 C 4.875,0.0665 4.793,0 4.633,0 L 3.286,0 c -0.172,0 -0.25,0.0665 -0.25,0.1836 0,0.125 0.078,0.1875 0.25,0.1875 l 0.668,0 0,4.1758 L 1.2,0 0.243,0 C 0.083,0 0,0.0665 0,0.1836 0,0.3086 0.083,0.3711 0.243,0.3711 l 0.488,0 0,4.336 -0.305,0 c -0.164,0 -0.246,0.0664 -0.246,0.1836 0,0.125 0.082,0.1875 0.246,0.1875 l 1.352,0 c 0.156,0 0.246,-0.0625 0.246,-0.1875 0,-0.1172 -0.082,-0.1836 -0.246,-0.1836 l -0.676,0 0,-4.1719 2.754,4.543 0.469,0 z"
         transform="translate(528.355,65.623)"
         id="path153"
         inkscape:connector-curvature="0" />
      <path
         style="fill:none;stroke:#004040;stroke-width:1;stroke-linecap:butt;stroke-linejoin:round;stroke-dasharray:none"
         d="M 0,0 0.5,15"
         transform="translate(517.857,47)"
         id="path155"
         inkscape:connector-curvature="0" />
      <path
         style="fill:none;stroke:#004040;stroke-width:1;stroke-linecap:butt;stroke-linejoin:round;stroke-dasharray:none"
         d="M 235,0 0,15"
         transform="translate(51,17)"
         id="path157"
         inkscape:connector-curvature="0" />
      <path
         style="fill:none;stroke:#004040;stroke-width:1;stroke-linecap:butt;stroke-linejoin:round;stroke-dasharray:none"
         d="M 135,0 0,15"
         transform="translate(151,17)"
         id="path159"
         inkscape:connector-curvature="0" />
      <path
         style="fill:none;stroke:#004040;stroke-width:1;stroke-linecap:butt;stroke-linejoin:round;stroke-dasharray:none"
         d="M 73,0 0,15"
         transform="translate(213,17)"
         id="path161"
         inkscape:connector-curvature="0" />
      <path
         style="fill:none;stroke:#004040;stroke-width:1;stroke-linecap:butt;stroke-linejoin:round;stroke-dasharray:none"
         d="M 3.5,0 0,15"
         transform="translate(282.5,17)"
         id="path163"
         inkscape:connector-curvature="0" />
      <path
         style="fill:none;stroke:#004040;stroke-width:1;stroke-linecap:butt;stroke-linejoin:round;stroke-dasharray:none"
         d="M 0,0 67.5,15"
         transform="translate(286,17)"
         id="path165"
         inkscape:connector-curvature="0" />
      <path
         style="fill:none;stroke:#004040;stroke-width:1;stroke-linecap:butt;stroke-linejoin:round;stroke-dasharray:none"
         d="M 0,0 148,15"
         transform="translate(286,17)"
         id="path167"
         inkscape:connector-curvature="0" />
      <path
         style="fill:none;stroke:#004040;stroke-width:1;stroke-linecap:butt;stroke-linejoin:round;stroke-dasharray:none"
         d="M 0,0 232,15"
         transform="translate(286,17)"
         id="path169"
         inkscape:connector-curvature="0" />
    </g>
  </g>
</svg>
